<mxfile host="Electron" modified="2023-12-10T13:28:01.485Z" agent="Mozilla/5.0 (Windows NT 10.0; Win64; x64) AppleWebKit/537.36 (KHTML, like Gecko) draw.io/22.0.2 Chrome/114.0.5735.289 Electron/25.8.4 Safari/537.36" etag="ZqEjD9ZodlRfP8CLIehE" version="22.0.2" type="device">
  <diagram name="Seite-1" id="O_LvzjllcN4gJdDAinWE">
    <mxGraphModel dx="2117" dy="745" grid="1" gridSize="10" guides="1" tooltips="1" connect="1" arrows="1" fold="1" page="1" pageScale="1" pageWidth="827" pageHeight="1169" math="0" shadow="0">
      <root>
        <mxCell id="0" />
        <mxCell id="1" parent="0" />
        <mxCell id="ZywKEGDjVC6vx8DT3Ou4-22" style="edgeStyle=orthogonalEdgeStyle;rounded=0;orthogonalLoop=1;jettySize=auto;html=1;exitX=0;exitY=0.75;exitDx=0;exitDy=0;entryX=1;entryY=0.75;entryDx=0;entryDy=0;" parent="1" source="ZywKEGDjVC6vx8DT3Ou4-1" target="ZywKEGDjVC6vx8DT3Ou4-2" edge="1">
          <mxGeometry relative="1" as="geometry" />
        </mxCell>
        <mxCell id="ZywKEGDjVC6vx8DT3Ou4-23" value="HandshakeResponsePayload" style="edgeLabel;html=1;align=center;verticalAlign=middle;resizable=0;points=[];" parent="ZywKEGDjVC6vx8DT3Ou4-22" vertex="1" connectable="0">
          <mxGeometry x="0.2146" y="-2" relative="1" as="geometry">
            <mxPoint x="18" as="offset" />
          </mxGeometry>
        </mxCell>
        <mxCell id="ZywKEGDjVC6vx8DT3Ou4-1" value="Listen: [IP:HandshakePort]" style="rounded=0;whiteSpace=wrap;html=1;" parent="1" vertex="1">
          <mxGeometry x="120" y="200" width="160" height="80" as="geometry" />
        </mxCell>
        <mxCell id="ZywKEGDjVC6vx8DT3Ou4-3" style="edgeStyle=orthogonalEdgeStyle;rounded=0;orthogonalLoop=1;jettySize=auto;html=1;exitX=1;exitY=0.25;exitDx=0;exitDy=0;entryX=0;entryY=0.25;entryDx=0;entryDy=0;" parent="1" source="ZywKEGDjVC6vx8DT3Ou4-2" target="ZywKEGDjVC6vx8DT3Ou4-1" edge="1">
          <mxGeometry relative="1" as="geometry">
            <mxPoint x="-80" y="220" as="sourcePoint" />
            <mxPoint x="80" y="220" as="targetPoint" />
          </mxGeometry>
        </mxCell>
        <mxCell id="ZywKEGDjVC6vx8DT3Ou4-4" value="HandshakePayload" style="edgeLabel;html=1;align=center;verticalAlign=middle;resizable=0;points=[];" parent="ZywKEGDjVC6vx8DT3Ou4-3" vertex="1" connectable="0">
          <mxGeometry x="-0.0583" y="2" relative="1" as="geometry">
            <mxPoint as="offset" />
          </mxGeometry>
        </mxCell>
        <mxCell id="ZywKEGDjVC6vx8DT3Ou4-2" value="Send: [TargetIP:HandshakePort]" style="rounded=0;whiteSpace=wrap;html=1;" parent="1" vertex="1">
          <mxGeometry x="-280" y="200" width="160" height="80" as="geometry" />
        </mxCell>
        <mxCell id="ZywKEGDjVC6vx8DT3Ou4-5" value="HandshakePayload" style="swimlane;fontStyle=0;childLayout=stackLayout;horizontal=1;startSize=26;fillColor=none;horizontalStack=0;resizeParent=1;resizeParentMax=0;resizeLast=0;collapsible=1;marginBottom=0;whiteSpace=wrap;html=1;" parent="1" vertex="1">
          <mxGeometry x="-65" y="40" width="140" height="130" as="geometry" />
        </mxCell>
        <mxCell id="ZywKEGDjVC6vx8DT3Ou4-6" value="+ Sender IP" style="text;strokeColor=none;fillColor=none;align=left;verticalAlign=top;spacingLeft=4;spacingRight=4;overflow=hidden;rotatable=0;points=[[0,0.5],[1,0.5]];portConstraint=eastwest;whiteSpace=wrap;html=1;" parent="ZywKEGDjVC6vx8DT3Ou4-5" vertex="1">
          <mxGeometry y="26" width="140" height="26" as="geometry" />
        </mxCell>
        <mxCell id="ZywKEGDjVC6vx8DT3Ou4-7" value="+ Content Type" style="text;strokeColor=none;fillColor=none;align=left;verticalAlign=top;spacingLeft=4;spacingRight=4;overflow=hidden;rotatable=0;points=[[0,0.5],[1,0.5]];portConstraint=eastwest;whiteSpace=wrap;html=1;" parent="ZywKEGDjVC6vx8DT3Ou4-5" vertex="1">
          <mxGeometry y="52" width="140" height="26" as="geometry" />
        </mxCell>
        <mxCell id="ZywKEGDjVC6vx8DT3Ou4-8" value="+ Content Length" style="text;strokeColor=none;fillColor=none;align=left;verticalAlign=top;spacingLeft=4;spacingRight=4;overflow=hidden;rotatable=0;points=[[0,0.5],[1,0.5]];portConstraint=eastwest;whiteSpace=wrap;html=1;" parent="ZywKEGDjVC6vx8DT3Ou4-5" vertex="1">
          <mxGeometry y="78" width="140" height="26" as="geometry" />
        </mxCell>
        <mxCell id="ZywKEGDjVC6vx8DT3Ou4-13" value="+ Timestamp" style="text;strokeColor=none;fillColor=none;align=left;verticalAlign=top;spacingLeft=4;spacingRight=4;overflow=hidden;rotatable=0;points=[[0,0.5],[1,0.5]];portConstraint=eastwest;whiteSpace=wrap;html=1;" parent="ZywKEGDjVC6vx8DT3Ou4-5" vertex="1">
          <mxGeometry y="104" width="140" height="26" as="geometry" />
        </mxCell>
        <mxCell id="ZywKEGDjVC6vx8DT3Ou4-9" value="HandshakeResponsePayload" style="swimlane;fontStyle=0;childLayout=stackLayout;horizontal=1;startSize=26;fillColor=none;horizontalStack=0;resizeParent=1;resizeParentMax=0;resizeLast=0;collapsible=1;marginBottom=0;whiteSpace=wrap;html=1;" parent="1" vertex="1">
          <mxGeometry x="-65" y="330" width="170" height="144" as="geometry" />
        </mxCell>
        <mxCell id="ZywKEGDjVC6vx8DT3Ou4-10" value="+ Receiver IP" style="text;strokeColor=none;fillColor=none;align=left;verticalAlign=top;spacingLeft=4;spacingRight=4;overflow=hidden;rotatable=0;points=[[0,0.5],[1,0.5]];portConstraint=eastwest;whiteSpace=wrap;html=1;" parent="ZywKEGDjVC6vx8DT3Ou4-9" vertex="1">
          <mxGeometry y="26" width="170" height="26" as="geometry" />
        </mxCell>
        <mxCell id="ZywKEGDjVC6vx8DT3Ou4-11" value="+ Response Status" style="text;strokeColor=none;fillColor=none;align=left;verticalAlign=top;spacingLeft=4;spacingRight=4;overflow=hidden;rotatable=0;points=[[0,0.5],[1,0.5]];portConstraint=eastwest;whiteSpace=wrap;html=1;" parent="ZywKEGDjVC6vx8DT3Ou4-9" vertex="1">
          <mxGeometry y="52" width="170" height="26" as="geometry" />
        </mxCell>
        <mxCell id="ZywKEGDjVC6vx8DT3Ou4-14" value="+ Timestamp" style="text;strokeColor=none;fillColor=none;align=left;verticalAlign=top;spacingLeft=4;spacingRight=4;overflow=hidden;rotatable=0;points=[[0,0.5],[1,0.5]];portConstraint=eastwest;whiteSpace=wrap;html=1;" parent="ZywKEGDjVC6vx8DT3Ou4-9" vertex="1">
          <mxGeometry y="78" width="170" height="26" as="geometry" />
        </mxCell>
        <mxCell id="ZywKEGDjVC6vx8DT3Ou4-21" value="+ Timeout (will delay others until this time)" style="text;strokeColor=none;fillColor=none;align=left;verticalAlign=top;spacingLeft=4;spacingRight=4;overflow=hidden;rotatable=0;points=[[0,0.5],[1,0.5]];portConstraint=eastwest;whiteSpace=wrap;html=1;" parent="ZywKEGDjVC6vx8DT3Ou4-9" vertex="1">
          <mxGeometry y="104" width="170" height="40" as="geometry" />
        </mxCell>
        <mxCell id="ZywKEGDjVC6vx8DT3Ou4-15" value="Response Status" style="swimlane;fontStyle=0;childLayout=stackLayout;horizontal=1;startSize=26;fillColor=none;horizontalStack=0;resizeParent=1;resizeParentMax=0;resizeLast=0;collapsible=1;marginBottom=0;whiteSpace=wrap;html=1;" parent="1" vertex="1">
          <mxGeometry x="190" y="340" width="170" height="104" as="geometry" />
        </mxCell>
        <mxCell id="ZywKEGDjVC6vx8DT3Ou4-16" value="+ Ready" style="text;strokeColor=none;fillColor=none;align=left;verticalAlign=top;spacingLeft=4;spacingRight=4;overflow=hidden;rotatable=0;points=[[0,0.5],[1,0.5]];portConstraint=eastwest;whiteSpace=wrap;html=1;" parent="ZywKEGDjVC6vx8DT3Ou4-15" vertex="1">
          <mxGeometry y="26" width="170" height="26" as="geometry" />
        </mxCell>
        <mxCell id="ZywKEGDjVC6vx8DT3Ou4-17" value="+ Refused" style="text;strokeColor=none;fillColor=none;align=left;verticalAlign=top;spacingLeft=4;spacingRight=4;overflow=hidden;rotatable=0;points=[[0,0.5],[1,0.5]];portConstraint=eastwest;whiteSpace=wrap;html=1;" parent="ZywKEGDjVC6vx8DT3Ou4-15" vertex="1">
          <mxGeometry y="52" width="170" height="26" as="geometry" />
        </mxCell>
        <mxCell id="ZywKEGDjVC6vx8DT3Ou4-18" value="+ Delay (Try later)" style="text;strokeColor=none;fillColor=none;align=left;verticalAlign=top;spacingLeft=4;spacingRight=4;overflow=hidden;rotatable=0;points=[[0,0.5],[1,0.5]];portConstraint=eastwest;whiteSpace=wrap;html=1;" parent="ZywKEGDjVC6vx8DT3Ou4-15" vertex="1">
          <mxGeometry y="78" width="170" height="26" as="geometry" />
        </mxCell>
        <mxCell id="ZywKEGDjVC6vx8DT3Ou4-20" style="edgeStyle=orthogonalEdgeStyle;rounded=0;orthogonalLoop=1;jettySize=auto;html=1;exitX=1;exitY=0.5;exitDx=0;exitDy=0;entryX=-0.006;entryY=0.13;entryDx=0;entryDy=0;entryPerimeter=0;" parent="1" source="ZywKEGDjVC6vx8DT3Ou4-11" target="ZywKEGDjVC6vx8DT3Ou4-15" edge="1">
          <mxGeometry relative="1" as="geometry" />
        </mxCell>
        <mxCell id="ckxzRhW9NMsAHL38ywjr-2" value="" style="rounded=0;whiteSpace=wrap;html=1;" vertex="1" parent="1">
          <mxGeometry x="-413" y="630" width="63" height="920" as="geometry" />
        </mxCell>
        <mxCell id="ckxzRhW9NMsAHL38ywjr-3" value="" style="rounded=0;whiteSpace=wrap;html=1;" vertex="1" parent="1">
          <mxGeometry x="-600" y="630" width="63" height="920" as="geometry" />
        </mxCell>
        <mxCell id="ckxzRhW9NMsAHL38ywjr-4" value="Sender UI" style="text;html=1;align=center;verticalAlign=middle;resizable=0;points=[];autosize=1;strokeColor=none;fillColor=none;" vertex="1" parent="1">
          <mxGeometry x="-608.5" y="590" width="80" height="30" as="geometry" />
        </mxCell>
        <mxCell id="ckxzRhW9NMsAHL38ywjr-5" value="Sender Lib" style="text;html=1;align=center;verticalAlign=middle;resizable=0;points=[];autosize=1;strokeColor=none;fillColor=none;" vertex="1" parent="1">
          <mxGeometry x="-421.5" y="590" width="80" height="30" as="geometry" />
        </mxCell>
        <mxCell id="ckxzRhW9NMsAHL38ywjr-6" value="" style="rounded=0;whiteSpace=wrap;html=1;" vertex="1" parent="1">
          <mxGeometry x="12" y="830" width="63" height="130" as="geometry" />
        </mxCell>
        <mxCell id="ckxzRhW9NMsAHL38ywjr-7" value="" style="rounded=0;whiteSpace=wrap;html=1;" vertex="1" parent="1">
          <mxGeometry x="-208.5" y="750" width="63" height="310" as="geometry" />
        </mxCell>
        <mxCell id="ckxzRhW9NMsAHL38ywjr-8" value="Receiver UI" style="text;html=1;align=center;verticalAlign=middle;resizable=0;points=[];autosize=1;strokeColor=none;fillColor=none;" vertex="1" parent="1">
          <mxGeometry x="-1.5" y="590" width="90" height="30" as="geometry" />
        </mxCell>
        <mxCell id="ckxzRhW9NMsAHL38ywjr-9" value="Receiver Lib" style="text;html=1;align=center;verticalAlign=middle;resizable=0;points=[];autosize=1;strokeColor=none;fillColor=none;" vertex="1" parent="1">
          <mxGeometry x="-222" y="590" width="90" height="30" as="geometry" />
        </mxCell>
        <mxCell id="ckxzRhW9NMsAHL38ywjr-10" style="edgeStyle=orthogonalEdgeStyle;rounded=0;orthogonalLoop=1;jettySize=auto;html=1;exitX=1;exitY=0.25;exitDx=0;exitDy=0;entryX=0.032;entryY=0.043;entryDx=0;entryDy=0;entryPerimeter=0;" edge="1" parent="1" source="ckxzRhW9NMsAHL38ywjr-3" target="ckxzRhW9NMsAHL38ywjr-2">
          <mxGeometry relative="1" as="geometry">
            <Array as="points">
              <mxPoint x="-537" y="670" />
            </Array>
          </mxGeometry>
        </mxCell>
        <mxCell id="ckxzRhW9NMsAHL38ywjr-11" value="Send" style="edgeLabel;html=1;align=center;verticalAlign=middle;resizable=0;points=[];" vertex="1" connectable="0" parent="ckxzRhW9NMsAHL38ywjr-10">
          <mxGeometry x="0.352" y="-3" relative="1" as="geometry">
            <mxPoint x="33" y="-3" as="offset" />
          </mxGeometry>
        </mxCell>
        <mxCell id="ckxzRhW9NMsAHL38ywjr-18" value="" style="endArrow=classic;html=1;rounded=0;exitX=1.048;exitY=0.048;exitDx=0;exitDy=0;exitPerimeter=0;entryX=1.01;entryY=0.107;entryDx=0;entryDy=0;entryPerimeter=0;" edge="1" parent="1" source="ckxzRhW9NMsAHL38ywjr-2" target="ckxzRhW9NMsAHL38ywjr-2">
          <mxGeometry width="50" height="50" relative="1" as="geometry">
            <mxPoint x="-319.24" y="659.9999999999999" as="sourcePoint" />
            <mxPoint x="-330" y="730" as="targetPoint" />
            <Array as="points">
              <mxPoint x="-300" y="674" />
              <mxPoint x="-300" y="730" />
            </Array>
          </mxGeometry>
        </mxCell>
        <mxCell id="ckxzRhW9NMsAHL38ywjr-19" value="Serialize" style="edgeLabel;html=1;align=center;verticalAlign=middle;resizable=0;points=[];" vertex="1" connectable="0" parent="ckxzRhW9NMsAHL38ywjr-18">
          <mxGeometry x="-0.0858" y="-3" relative="1" as="geometry">
            <mxPoint as="offset" />
          </mxGeometry>
        </mxCell>
        <mxCell id="ckxzRhW9NMsAHL38ywjr-20" value="" style="endArrow=classic;html=1;rounded=0;exitX=1.073;exitY=0.144;exitDx=0;exitDy=0;exitPerimeter=0;entryX=-0.04;entryY=0.034;entryDx=0;entryDy=0;entryPerimeter=0;" edge="1" parent="1" source="ckxzRhW9NMsAHL38ywjr-2" target="ckxzRhW9NMsAHL38ywjr-7">
          <mxGeometry width="50" height="50" relative="1" as="geometry">
            <mxPoint x="-80" y="880" as="sourcePoint" />
            <mxPoint x="-30" y="830" as="targetPoint" />
          </mxGeometry>
        </mxCell>
        <mxCell id="ckxzRhW9NMsAHL38ywjr-21" value="Handshake" style="edgeLabel;html=1;align=center;verticalAlign=middle;resizable=0;points=[];" vertex="1" connectable="0" parent="ckxzRhW9NMsAHL38ywjr-20">
          <mxGeometry x="-0.0527" y="-4" relative="1" as="geometry">
            <mxPoint as="offset" />
          </mxGeometry>
        </mxCell>
        <mxCell id="ckxzRhW9NMsAHL38ywjr-22" value="" style="endArrow=classic;html=1;rounded=0;exitX=1.035;exitY=0.103;exitDx=0;exitDy=0;exitPerimeter=0;entryX=0.997;entryY=0.229;entryDx=0;entryDy=0;entryPerimeter=0;" edge="1" parent="1">
          <mxGeometry width="50" height="50" relative="1" as="geometry">
            <mxPoint x="-143.5" y="770" as="sourcePoint" />
            <mxPoint x="-145.5" y="824" as="targetPoint" />
            <Array as="points">
              <mxPoint x="-95.5" y="770" />
              <mxPoint x="-95.5" y="826" />
            </Array>
          </mxGeometry>
        </mxCell>
        <mxCell id="ckxzRhW9NMsAHL38ywjr-23" value="Deserialize" style="edgeLabel;html=1;align=center;verticalAlign=middle;resizable=0;points=[];" vertex="1" connectable="0" parent="ckxzRhW9NMsAHL38ywjr-22">
          <mxGeometry x="-0.0858" y="-3" relative="1" as="geometry">
            <mxPoint as="offset" />
          </mxGeometry>
        </mxCell>
        <mxCell id="ckxzRhW9NMsAHL38ywjr-24" style="edgeStyle=orthogonalEdgeStyle;rounded=0;orthogonalLoop=1;jettySize=auto;html=1;exitX=1;exitY=0.5;exitDx=0;exitDy=0;entryX=0.016;entryY=0.315;entryDx=0;entryDy=0;entryPerimeter=0;" edge="1" parent="1" target="ckxzRhW9NMsAHL38ywjr-6">
          <mxGeometry relative="1" as="geometry">
            <mxPoint x="-143" y="870.5" as="sourcePoint" />
            <mxPoint x="0.306999999999789" y="870.02" as="targetPoint" />
          </mxGeometry>
        </mxCell>
        <mxCell id="ckxzRhW9NMsAHL38ywjr-25" value="Accept?" style="edgeLabel;html=1;align=center;verticalAlign=middle;resizable=0;points=[];" vertex="1" connectable="0" parent="ckxzRhW9NMsAHL38ywjr-24">
          <mxGeometry x="-0.0875" y="-2" relative="1" as="geometry">
            <mxPoint as="offset" />
          </mxGeometry>
        </mxCell>
        <mxCell id="ckxzRhW9NMsAHL38ywjr-26" style="edgeStyle=orthogonalEdgeStyle;rounded=0;orthogonalLoop=1;jettySize=auto;html=1;entryX=1.002;entryY=0.63;entryDx=0;entryDy=0;entryPerimeter=0;" edge="1" parent="1">
          <mxGeometry relative="1" as="geometry">
            <mxPoint x="10" y="920" as="sourcePoint" />
            <mxPoint x="-145.5039999999998" y="920.3" as="targetPoint" />
          </mxGeometry>
        </mxCell>
        <mxCell id="ckxzRhW9NMsAHL38ywjr-27" value="true/false" style="edgeLabel;html=1;align=center;verticalAlign=middle;resizable=0;points=[];" vertex="1" connectable="0" parent="ckxzRhW9NMsAHL38ywjr-26">
          <mxGeometry x="0.0857" y="1" relative="1" as="geometry">
            <mxPoint y="-6" as="offset" />
          </mxGeometry>
        </mxCell>
        <mxCell id="ckxzRhW9NMsAHL38ywjr-28" style="edgeStyle=orthogonalEdgeStyle;rounded=0;orthogonalLoop=1;jettySize=auto;html=1;exitX=0;exitY=0.75;exitDx=0;exitDy=0;entryX=1.048;entryY=0.821;entryDx=0;entryDy=0;entryPerimeter=0;" edge="1" parent="1">
          <mxGeometry relative="1" as="geometry">
            <mxPoint x="-208.5" y="1000" as="sourcePoint" />
            <mxPoint x="-346.9760000000001" y="1000.53" as="targetPoint" />
          </mxGeometry>
        </mxCell>
        <mxCell id="ckxzRhW9NMsAHL38ywjr-29" value="Response" style="edgeLabel;html=1;align=center;verticalAlign=middle;resizable=0;points=[];" vertex="1" connectable="0" parent="ckxzRhW9NMsAHL38ywjr-28">
          <mxGeometry x="0.0633" y="2" relative="1" as="geometry">
            <mxPoint as="offset" />
          </mxGeometry>
        </mxCell>
        <mxCell id="ckxzRhW9NMsAHL38ywjr-30" value="" style="endArrow=classic;html=1;rounded=0;" edge="1" parent="1">
          <mxGeometry width="50" height="50" relative="1" as="geometry">
            <mxPoint x="-208.5" y="930" as="sourcePoint" />
            <mxPoint x="-208.5" y="980" as="targetPoint" />
            <Array as="points">
              <mxPoint x="-229.5" y="930" />
              <mxPoint x="-259.5" y="930" />
              <mxPoint x="-259.5" y="980" />
            </Array>
          </mxGeometry>
        </mxCell>
        <mxCell id="ckxzRhW9NMsAHL38ywjr-31" value="Serialize" style="edgeLabel;html=1;align=center;verticalAlign=middle;resizable=0;points=[];" vertex="1" connectable="0" parent="ckxzRhW9NMsAHL38ywjr-30">
          <mxGeometry x="-0.0053" y="-3" relative="1" as="geometry">
            <mxPoint as="offset" />
          </mxGeometry>
        </mxCell>
        <mxCell id="ckxzRhW9NMsAHL38ywjr-32" value="" style="endArrow=classic;html=1;rounded=0;exitX=1.035;exitY=0.103;exitDx=0;exitDy=0;exitPerimeter=0;entryX=0.997;entryY=0.229;entryDx=0;entryDy=0;entryPerimeter=0;" edge="1" parent="1">
          <mxGeometry width="50" height="50" relative="1" as="geometry">
            <mxPoint x="-348" y="1020" as="sourcePoint" />
            <mxPoint x="-350" y="1074" as="targetPoint" />
            <Array as="points">
              <mxPoint x="-300" y="1020" />
              <mxPoint x="-300" y="1076" />
            </Array>
          </mxGeometry>
        </mxCell>
        <mxCell id="ckxzRhW9NMsAHL38ywjr-33" value="Deserialize" style="edgeLabel;html=1;align=center;verticalAlign=middle;resizable=0;points=[];" vertex="1" connectable="0" parent="ckxzRhW9NMsAHL38ywjr-32">
          <mxGeometry x="-0.0858" y="-3" relative="1" as="geometry">
            <mxPoint as="offset" />
          </mxGeometry>
        </mxCell>
        <mxCell id="ckxzRhW9NMsAHL38ywjr-34" value="" style="endArrow=classic;html=1;rounded=0;exitX=1.035;exitY=0.103;exitDx=0;exitDy=0;exitPerimeter=0;entryX=0.997;entryY=0.229;entryDx=0;entryDy=0;entryPerimeter=0;" edge="1" parent="1">
          <mxGeometry width="50" height="50" relative="1" as="geometry">
            <mxPoint x="-348" y="1100" as="sourcePoint" />
            <mxPoint x="-350" y="1154" as="targetPoint" />
            <Array as="points">
              <mxPoint x="-300" y="1100" />
              <mxPoint x="-300" y="1156" />
            </Array>
          </mxGeometry>
        </mxCell>
        <mxCell id="ckxzRhW9NMsAHL38ywjr-35" value="Check Response&lt;br&gt;Status" style="edgeLabel;html=1;align=center;verticalAlign=middle;resizable=0;points=[];" vertex="1" connectable="0" parent="ckxzRhW9NMsAHL38ywjr-34">
          <mxGeometry x="-0.0858" y="-3" relative="1" as="geometry">
            <mxPoint as="offset" />
          </mxGeometry>
        </mxCell>
        <mxCell id="ckxzRhW9NMsAHL38ywjr-37" value="" style="endArrow=classic;html=1;rounded=0;entryX=1.006;entryY=0.856;entryDx=0;entryDy=0;entryPerimeter=0;exitX=-0.032;exitY=0.858;exitDx=0;exitDy=0;exitPerimeter=0;" edge="1" parent="1">
          <mxGeometry width="50" height="50" relative="1" as="geometry">
            <mxPoint x="-412.9960000000001" y="1201.8400000000001" as="sourcePoint" />
            <mxPoint x="-534.6020000000001" y="1200" as="targetPoint" />
          </mxGeometry>
        </mxCell>
        <mxCell id="ckxzRhW9NMsAHL38ywjr-38" value="Error" style="edgeLabel;html=1;align=center;verticalAlign=middle;resizable=0;points=[];" vertex="1" connectable="0" parent="ckxzRhW9NMsAHL38ywjr-37">
          <mxGeometry x="0.0922" y="-2" relative="1" as="geometry">
            <mxPoint as="offset" />
          </mxGeometry>
        </mxCell>
        <mxCell id="ckxzRhW9NMsAHL38ywjr-40" value="" style="endArrow=none;dashed=1;html=1;dashPattern=1 3;strokeWidth=4;rounded=0;fillColor=#e51400;strokeColor=#B20000;" edge="1" parent="1">
          <mxGeometry width="50" height="50" relative="1" as="geometry">
            <mxPoint x="-300" y="1170" as="sourcePoint" />
            <mxPoint x="-300" y="1170" as="targetPoint" />
            <Array as="points">
              <mxPoint x="-750" y="1170" />
              <mxPoint x="-750" y="1220" />
              <mxPoint x="-300" y="1220" />
            </Array>
          </mxGeometry>
        </mxCell>
        <mxCell id="ckxzRhW9NMsAHL38ywjr-41" value="Response = Rejected" style="text;html=1;strokeColor=#B20000;fillColor=#e51400;align=center;verticalAlign=middle;whiteSpace=wrap;rounded=0;fontColor=#ffffff;" vertex="1" parent="1">
          <mxGeometry x="-749.25" y="1169" width="120" height="41" as="geometry" />
        </mxCell>
        <mxCell id="ckxzRhW9NMsAHL38ywjr-42" value="" style="endArrow=none;dashed=1;html=1;dashPattern=1 3;strokeWidth=4;rounded=0;fillColor=#1ba1e2;strokeColor=#006EAF;" edge="1" parent="1">
          <mxGeometry width="50" height="50" relative="1" as="geometry">
            <mxPoint x="-240" y="1240" as="sourcePoint" />
            <mxPoint x="-240" y="1240" as="targetPoint" />
            <Array as="points">
              <mxPoint x="-750" y="1240" />
              <mxPoint x="-750" y="1350" />
              <mxPoint x="-240" y="1350" />
            </Array>
          </mxGeometry>
        </mxCell>
        <mxCell id="ckxzRhW9NMsAHL38ywjr-43" value="Response = Delay" style="text;html=1;strokeColor=#006EAF;fillColor=#1ba1e2;align=center;verticalAlign=middle;whiteSpace=wrap;rounded=0;fontColor=#ffffff;" vertex="1" parent="1">
          <mxGeometry x="-749.25" y="1250" width="108.5" height="40" as="geometry" />
        </mxCell>
        <mxCell id="ckxzRhW9NMsAHL38ywjr-44" value="" style="endArrow=classic;html=1;rounded=0;exitX=1.035;exitY=0.103;exitDx=0;exitDy=0;exitPerimeter=0;entryX=0.997;entryY=0.229;entryDx=0;entryDy=0;entryPerimeter=0;" edge="1" parent="1">
          <mxGeometry width="50" height="50" relative="1" as="geometry">
            <mxPoint x="-348" y="1260" as="sourcePoint" />
            <mxPoint x="-350" y="1314" as="targetPoint" />
            <Array as="points">
              <mxPoint x="-300" y="1260" />
              <mxPoint x="-300" y="1316" />
            </Array>
          </mxGeometry>
        </mxCell>
        <mxCell id="ckxzRhW9NMsAHL38ywjr-45" value="Wait&amp;amp;Retry" style="edgeLabel;html=1;align=center;verticalAlign=middle;resizable=0;points=[];" vertex="1" connectable="0" parent="ckxzRhW9NMsAHL38ywjr-44">
          <mxGeometry x="-0.0858" y="-3" relative="1" as="geometry">
            <mxPoint as="offset" />
          </mxGeometry>
        </mxCell>
        <mxCell id="ckxzRhW9NMsAHL38ywjr-47" value="Response = Ready" style="text;html=1;strokeColor=#2D7600;fillColor=#60a917;align=center;verticalAlign=middle;whiteSpace=wrap;rounded=0;fontColor=#ffffff;" vertex="1" parent="1">
          <mxGeometry x="-749.25" y="1360" width="118.5" height="30" as="geometry" />
        </mxCell>
        <mxCell id="ckxzRhW9NMsAHL38ywjr-48" value="" style="rounded=0;whiteSpace=wrap;html=1;" vertex="1" parent="1">
          <mxGeometry x="-208.5" y="1350" width="63" height="260" as="geometry" />
        </mxCell>
        <mxCell id="ckxzRhW9NMsAHL38ywjr-50" value="while message &lt;br&gt;not complete" style="text;html=1;align=center;verticalAlign=middle;resizable=0;points=[];autosize=1;strokeColor=#2D7600;fillColor=#60a917;fontColor=#ffffff;" vertex="1" parent="1">
          <mxGeometry x="-521.5" y="1375" width="100" height="40" as="geometry" />
        </mxCell>
        <mxCell id="ckxzRhW9NMsAHL38ywjr-51" value="" style="endArrow=classic;html=1;rounded=0;exitX=1.022;exitY=0.839;exitDx=0;exitDy=0;exitPerimeter=0;" edge="1" parent="1" source="ckxzRhW9NMsAHL38ywjr-2">
          <mxGeometry width="50" height="50" relative="1" as="geometry">
            <mxPoint x="-80" y="1380" as="sourcePoint" />
            <mxPoint x="-210" y="1402" as="targetPoint" />
          </mxGeometry>
        </mxCell>
        <mxCell id="ckxzRhW9NMsAHL38ywjr-52" value="Send Section" style="edgeLabel;html=1;align=center;verticalAlign=middle;resizable=0;points=[];" vertex="1" connectable="0" parent="ckxzRhW9NMsAHL38ywjr-51">
          <mxGeometry x="-0.0595" y="1" relative="1" as="geometry">
            <mxPoint as="offset" />
          </mxGeometry>
        </mxCell>
        <mxCell id="ckxzRhW9NMsAHL38ywjr-53" value="" style="endArrow=classic;html=1;rounded=0;exitX=1.035;exitY=0.103;exitDx=0;exitDy=0;exitPerimeter=0;entryX=0.997;entryY=0.229;entryDx=0;entryDy=0;entryPerimeter=0;" edge="1" parent="1">
          <mxGeometry width="50" height="50" relative="1" as="geometry">
            <mxPoint x="-143.5" y="1410" as="sourcePoint" />
            <mxPoint x="-145.5" y="1464" as="targetPoint" />
            <Array as="points">
              <mxPoint x="-95.5" y="1410" />
              <mxPoint x="-95.5" y="1466" />
            </Array>
          </mxGeometry>
        </mxCell>
        <mxCell id="ckxzRhW9NMsAHL38ywjr-54" value="Append&lt;br&gt;Section" style="edgeLabel;html=1;align=center;verticalAlign=middle;resizable=0;points=[];" vertex="1" connectable="0" parent="ckxzRhW9NMsAHL38ywjr-53">
          <mxGeometry x="-0.0858" y="-3" relative="1" as="geometry">
            <mxPoint as="offset" />
          </mxGeometry>
        </mxCell>
        <mxCell id="ckxzRhW9NMsAHL38ywjr-55" value="" style="endArrow=classic;html=1;rounded=0;exitX=1.01;exitY=0.954;exitDx=0;exitDy=0;exitPerimeter=0;" edge="1" parent="1" source="ckxzRhW9NMsAHL38ywjr-2">
          <mxGeometry width="50" height="50" relative="1" as="geometry">
            <mxPoint x="-80" y="1380" as="sourcePoint" />
            <mxPoint x="-210" y="1510" as="targetPoint" />
          </mxGeometry>
        </mxCell>
        <mxCell id="ckxzRhW9NMsAHL38ywjr-56" value="Send Endtoken" style="edgeLabel;html=1;align=center;verticalAlign=middle;resizable=0;points=[];" vertex="1" connectable="0" parent="ckxzRhW9NMsAHL38ywjr-55">
          <mxGeometry x="-0.068" relative="1" as="geometry">
            <mxPoint as="offset" />
          </mxGeometry>
        </mxCell>
        <mxCell id="ckxzRhW9NMsAHL38ywjr-57" value="" style="rounded=0;whiteSpace=wrap;html=1;" vertex="1" parent="1">
          <mxGeometry x="12" y="1350" width="63" height="280" as="geometry" />
        </mxCell>
        <mxCell id="ckxzRhW9NMsAHL38ywjr-49" value="" style="endArrow=none;dashed=1;html=1;rounded=0;fillColor=#60a917;strokeColor=#2D7600;strokeWidth=4;" edge="1" parent="1">
          <mxGeometry width="50" height="50" relative="1" as="geometry">
            <mxPoint x="-520" y="1500" as="sourcePoint" />
            <mxPoint x="-520" y="1500" as="targetPoint" />
            <Array as="points">
              <mxPoint x="100" y="1500" />
              <mxPoint x="100" y="1370" />
              <mxPoint x="-520" y="1370" />
            </Array>
          </mxGeometry>
        </mxCell>
        <mxCell id="ckxzRhW9NMsAHL38ywjr-58" value="" style="endArrow=classic;html=1;rounded=0;" edge="1" parent="1">
          <mxGeometry width="50" height="50" relative="1" as="geometry">
            <mxPoint x="-140" y="1485" as="sourcePoint" />
            <mxPoint x="10" y="1485" as="targetPoint" />
          </mxGeometry>
        </mxCell>
        <mxCell id="ckxzRhW9NMsAHL38ywjr-59" value="Update Progress" style="edgeLabel;html=1;align=center;verticalAlign=middle;resizable=0;points=[];" vertex="1" connectable="0" parent="ckxzRhW9NMsAHL38ywjr-58">
          <mxGeometry x="-0.1164" y="3" relative="1" as="geometry">
            <mxPoint as="offset" />
          </mxGeometry>
        </mxCell>
        <mxCell id="ckxzRhW9NMsAHL38ywjr-60" value="" style="endArrow=classic;html=1;rounded=0;exitX=1.035;exitY=0.103;exitDx=0;exitDy=0;exitPerimeter=0;entryX=0.997;entryY=0.229;entryDx=0;entryDy=0;entryPerimeter=0;" edge="1" parent="1">
          <mxGeometry width="50" height="50" relative="1" as="geometry">
            <mxPoint x="-143.5" y="1520" as="sourcePoint" />
            <mxPoint x="-145.5" y="1574" as="targetPoint" />
            <Array as="points">
              <mxPoint x="-95.5" y="1520" />
              <mxPoint x="-95.5" y="1576" />
            </Array>
          </mxGeometry>
        </mxCell>
        <mxCell id="ckxzRhW9NMsAHL38ywjr-61" value="Process&lt;br&gt;Message" style="edgeLabel;html=1;align=center;verticalAlign=middle;resizable=0;points=[];" vertex="1" connectable="0" parent="ckxzRhW9NMsAHL38ywjr-60">
          <mxGeometry x="-0.0858" y="-3" relative="1" as="geometry">
            <mxPoint as="offset" />
          </mxGeometry>
        </mxCell>
        <mxCell id="ckxzRhW9NMsAHL38ywjr-63" value="" style="endArrow=classic;html=1;rounded=0;" edge="1" parent="1">
          <mxGeometry width="50" height="50" relative="1" as="geometry">
            <mxPoint x="-140" y="1600" as="sourcePoint" />
            <mxPoint x="10" y="1600" as="targetPoint" />
          </mxGeometry>
        </mxCell>
        <mxCell id="ckxzRhW9NMsAHL38ywjr-64" value="Complete Message" style="edgeLabel;html=1;align=center;verticalAlign=middle;resizable=0;points=[];" vertex="1" connectable="0" parent="ckxzRhW9NMsAHL38ywjr-63">
          <mxGeometry x="-0.2142" y="1" relative="1" as="geometry">
            <mxPoint as="offset" />
          </mxGeometry>
        </mxCell>
        <mxCell id="ckxzRhW9NMsAHL38ywjr-65" value="" style="endArrow=none;html=1;rounded=0;entryX=0.5;entryY=1;entryDx=0;entryDy=0;exitX=0.5;exitY=0;exitDx=0;exitDy=0;" edge="1" parent="1" source="ckxzRhW9NMsAHL38ywjr-57" target="ckxzRhW9NMsAHL38ywjr-6">
          <mxGeometry width="50" height="50" relative="1" as="geometry">
            <mxPoint x="-80" y="1280" as="sourcePoint" />
            <mxPoint x="-30" y="1230" as="targetPoint" />
          </mxGeometry>
        </mxCell>
        <mxCell id="ckxzRhW9NMsAHL38ywjr-66" value="" style="endArrow=none;html=1;rounded=0;entryX=0.473;entryY=1.1;entryDx=0;entryDy=0;entryPerimeter=0;" edge="1" parent="1" target="ckxzRhW9NMsAHL38ywjr-8">
          <mxGeometry width="50" height="50" relative="1" as="geometry">
            <mxPoint x="41" y="830" as="sourcePoint" />
            <mxPoint x="-30" y="830" as="targetPoint" />
          </mxGeometry>
        </mxCell>
        <mxCell id="ckxzRhW9NMsAHL38ywjr-67" value="" style="endArrow=none;html=1;rounded=0;entryX=0.478;entryY=1.153;entryDx=0;entryDy=0;entryPerimeter=0;exitX=0.5;exitY=0;exitDx=0;exitDy=0;" edge="1" parent="1" source="ckxzRhW9NMsAHL38ywjr-7" target="ckxzRhW9NMsAHL38ywjr-9">
          <mxGeometry width="50" height="50" relative="1" as="geometry">
            <mxPoint x="-80" y="880" as="sourcePoint" />
            <mxPoint x="-30" y="830" as="targetPoint" />
          </mxGeometry>
        </mxCell>
        <mxCell id="ckxzRhW9NMsAHL38ywjr-68" value="" style="endArrow=none;html=1;rounded=0;entryX=0.5;entryY=1;entryDx=0;entryDy=0;exitX=0.5;exitY=0;exitDx=0;exitDy=0;" edge="1" parent="1" source="ckxzRhW9NMsAHL38ywjr-48" target="ckxzRhW9NMsAHL38ywjr-7">
          <mxGeometry width="50" height="50" relative="1" as="geometry">
            <mxPoint x="-80" y="1280" as="sourcePoint" />
            <mxPoint x="-30" y="1230" as="targetPoint" />
          </mxGeometry>
        </mxCell>
        <mxCell id="ckxzRhW9NMsAHL38ywjr-70" value="&lt;font color=&quot;#f00a0a&quot; style=&quot;font-size: 22px;&quot;&gt;X&lt;/font&gt;" style="text;html=1;align=center;verticalAlign=middle;resizable=0;points=[];autosize=1;strokeColor=none;fillColor=none;" vertex="1" parent="1">
          <mxGeometry x="-401.5" y="1190" width="40" height="40" as="geometry" />
        </mxCell>
        <mxCell id="ckxzRhW9NMsAHL38ywjr-71" value="&lt;font color=&quot;#f00a0a&quot; style=&quot;font-size: 22px;&quot;&gt;X&lt;/font&gt;" style="text;html=1;align=center;verticalAlign=middle;resizable=0;points=[];autosize=1;strokeColor=none;fillColor=none;" vertex="1" parent="1">
          <mxGeometry x="-401.5" y="1530" width="40" height="40" as="geometry" />
        </mxCell>
        <mxCell id="ckxzRhW9NMsAHL38ywjr-73" value="Logging" style="rounded=0;whiteSpace=wrap;html=1;" vertex="1" parent="1">
          <mxGeometry x="160" y="720" width="120" height="60" as="geometry" />
        </mxCell>
        <mxCell id="ckxzRhW9NMsAHL38ywjr-74" value="Encryption" style="rounded=0;whiteSpace=wrap;html=1;" vertex="1" parent="1">
          <mxGeometry x="160" y="800" width="120" height="60" as="geometry" />
        </mxCell>
      </root>
    </mxGraphModel>
  </diagram>
</mxfile>
